<svg xmlns="http://www.w3.org/2000/svg" width="1800" height="1628" viewBox="0 0 1800 1628" role="img" aria-labelledby="title subtitle">
<style>

        .bg { fill: #ffffff; }
        .panel { fill: #fcfbf6; stroke: #8ea79d; stroke-width: 2; }
        .kicker { font: 700 18px 'IBM Plex Sans', 'Helvetica Neue', Arial, sans-serif; fill: #5b6f66; letter-spacing: 1.8px; text-transform: uppercase; }
        .title { font: 800 40px 'IBM Plex Sans', 'Helvetica Neue', Arial, sans-serif; fill: #00491e; letter-spacing: 0.4px; }
        .subtitle { font: 400 17px 'IBM Plex Sans', 'Helvetica Neue', Arial, sans-serif; fill: #5b6f66; }
        .legend { font: 600 14px 'IBM Plex Sans', 'Helvetica Neue', Arial, sans-serif; fill: #14352b; }
        .panel-title { font: 800 22px 'IBM Plex Sans', 'Helvetica Neue', Arial, sans-serif; fill: #f7f5ef; letter-spacing: 0.6px; }
        .panel-count { font: 700 18px 'IBM Plex Sans', 'Helvetica Neue', Arial, sans-serif; fill: #f7f5ef; }
        .tick { font: 500 12px 'IBM Plex Sans', 'Helvetica Neue', Arial, sans-serif; fill: #5b6f66; }
        .boat-label { font: 700 14px 'IBM Plex Sans', 'Helvetica Neue', Arial, sans-serif; fill: white; stroke: rgba(20, 53, 43, 0.78); stroke-width: 3.4px; stroke-linejoin: round; paint-order: stroke; letter-spacing: 0.15px; }
        .footer { font: 400 14px 'IBM Plex Sans', 'Helvetica Neue', Arial, sans-serif; fill: #5b6f66; }
        .grid { stroke: #d7dfda; stroke-width: 1; }
        .baseline { stroke: #8ea79d; stroke-width: 1.25; }
        .interval { stroke-width: 18; stroke-linecap: round; fill: none; }
        .marker { stroke: white; stroke-width: 2; }
        
</style>
<rect class="bg" width="1800" height="1628" />
<title id="title">Club boat weight coverage by boat type</title>
<desc id="subtitle"></desc>
<text x="72.0" y="40.0" class="kicker" text-anchor="start">City of Bristol Rowing Club</text>
<text x="72.0" y="82.0" class="title" text-anchor="start">Boat Weight Coverage</text>
<text x="72.0" y="114.0" class="subtitle" text-anchor="start">Coverage uses stated weight ± 5 kg.</text>
<text x="72.0" y="135.0" class="subtitle" text-anchor="start">Deleted boats, and private boats are excluded.</text>
<line x1="1260" x2="1294" y1="70" y2="70" class="interval" stroke="#00491e" />
<text x="1308.0" y="75.0" class="legend" text-anchor="start">scull</text>
<line x1="1260" x2="1294" y1="96" y2="96" class="interval" stroke="#49a868" />
<text x="1308.0" y="101.0" class="legend" text-anchor="start">sweep</text>
<defs>
<linearGradient id="legend-both-gradient" x1="0%" y1="100%" x2="100%" y2="0%"><stop offset="50%" stop-color="#00491e" /><stop offset="50%" stop-color="#49a868" /></linearGradient>
</defs>
<rect x="1251.0" y="113.0" width="52.0" height="18" rx="9.0" ry="9.0" fill="url(#legend-both-gradient)" />
<text x="1308.0" y="127.0" class="legend" text-anchor="start">both</text>
<circle cx="1277.0" cy="148.0" r="5" class="marker" fill="#dc2626" />
<text x="1308.0" y="153.0" class="legend" text-anchor="start">restricted boat</text>
<rect x="48" y="170" width="1704" height="272" rx="6" ry="6" class="panel" />
<rect x="64" y="184" width="1672" height="30" rx="4" ry="4" fill="#00491e" />
<text x="72.0" y="206.0" class="panel-title" text-anchor="start">Singles</text>
<text x="1724.0" y="206.0" class="panel-count" text-anchor="end">22 boats</text>
<line x1="120.0" y1="232.0" x2="120.0" y2="424.0" class="grid" />
<text x="120.0" y="228.0" class="tick" text-anchor="middle">50 kg</text>
<line x1="261.8" y1="232.0" x2="261.8" y2="424.0" class="grid" />
<text x="261.8" y="228.0" class="tick" text-anchor="middle">55 kg</text>
<line x1="403.6" y1="232.0" x2="403.6" y2="424.0" class="grid" />
<text x="403.6" y="228.0" class="tick" text-anchor="middle">60 kg</text>
<line x1="545.5" y1="232.0" x2="545.5" y2="424.0" class="grid" />
<text x="545.5" y="228.0" class="tick" text-anchor="middle">65 kg</text>
<line x1="687.3" y1="232.0" x2="687.3" y2="424.0" class="grid" />
<text x="687.3" y="228.0" class="tick" text-anchor="middle">70 kg</text>
<line x1="829.1" y1="232.0" x2="829.1" y2="424.0" class="grid" />
<text x="829.1" y="228.0" class="tick" text-anchor="middle">75 kg</text>
<line x1="970.9" y1="232.0" x2="970.9" y2="424.0" class="grid" />
<text x="970.9" y="228.0" class="tick" text-anchor="middle">80 kg</text>
<line x1="1112.7" y1="232.0" x2="1112.7" y2="424.0" class="grid" />
<text x="1112.7" y="228.0" class="tick" text-anchor="middle">85 kg</text>
<line x1="1254.5" y1="232.0" x2="1254.5" y2="424.0" class="grid" />
<text x="1254.5" y="228.0" class="tick" text-anchor="middle">90 kg</text>
<line x1="1396.4" y1="232.0" x2="1396.4" y2="424.0" class="grid" />
<text x="1396.4" y="228.0" class="tick" text-anchor="middle">95 kg</text>
<line x1="1538.2" y1="232.0" x2="1538.2" y2="424.0" class="grid" />
<text x="1538.2" y="228.0" class="tick" text-anchor="middle">100 kg</text>
<line x1="1680.0" y1="232.0" x2="1680.0" y2="424.0" class="grid" />
<text x="1680.0" y="228.0" class="tick" text-anchor="middle">105 kg</text>
<line x1="120.0" y1="250.0" x2="1680.0" y2="250.0" class="baseline" />
<line x1="91.6" y1="274.0" x2="375.3" y2="274.0" class="interval" stroke="#00491e" />
<text x="233.5" y="279.0" class="boat-label" text-anchor="middle" fill="white">Firefly</text>
<line x1="403.6" y1="274.0" x2="687.3" y2="274.0" class="interval" stroke="#00491e" />
<circle cx="403.6" cy="274.0" r="5" class="marker" fill="#dc2626" />
<text x="545.5" y="279.0" class="boat-label" text-anchor="middle" fill="white">Tom Thie</text>
<line x1="829.1" y1="274.0" x2="1112.7" y2="274.0" class="interval" stroke="#00491e" />
<text x="970.9" y="279.0" class="boat-label" text-anchor="middle" fill="white">Roesie</text>
<line x1="1169.5" y1="274.0" x2="1453.1" y2="274.0" class="interval" stroke="#00491e" />
<text x="1311.3" y="279.0" class="boat-label" text-anchor="middle" fill="white">WhyKnot</text>
<line x1="120.0" y1="298.0" x2="403.6" y2="298.0" class="interval" stroke="#00491e" />
<text x="261.8" y="303.0" class="boat-label" text-anchor="middle" fill="white">Aunty Sarah</text>
<line x1="545.5" y1="298.0" x2="829.1" y2="298.0" class="interval" stroke="#00491e" />
<text x="687.3" y="303.0" class="boat-label" text-anchor="middle" fill="white">Valentine</text>
<line x1="970.9" y1="298.0" x2="1254.5" y2="298.0" class="interval" stroke="#00491e" />
<text x="1112.7" y="303.0" class="boat-label" text-anchor="middle" fill="white">Refresh Yourself</text>
<line x1="1396.4" y1="298.0" x2="1680.0" y2="298.0" class="interval" stroke="#00491e" />
<text x="1538.2" y="303.0" class="boat-label" text-anchor="middle" fill="white">Virus Grey - TS 515 (A)</text>
<line x1="120.0" y1="322.0" x2="403.6" y2="322.0" class="interval" stroke="#00491e" />
<text x="261.8" y="327.0" class="boat-label" text-anchor="middle" fill="white">Unleash the Beast</text>
<line x1="687.3" y1="322.0" x2="970.9" y2="322.0" class="interval" stroke="#00491e" />
<text x="829.1" y="327.0" class="boat-label" text-anchor="middle" fill="white">Pointless</text>
<line x1="1112.7" y1="322.0" x2="1396.4" y2="322.0" class="interval" stroke="#00491e" />
<text x="1254.5" y="327.0" class="boat-label" text-anchor="middle" fill="white">Goat ee</text>
<line x1="261.8" y1="346.0" x2="545.5" y2="346.0" class="interval" stroke="#00491e" />
<text x="403.6" y="351.0" class="boat-label" text-anchor="middle" fill="white">Margaret</text>
<line x1="687.3" y1="346.0" x2="970.9" y2="346.0" class="interval" stroke="#00491e" />
<text x="829.1" y="351.0" class="boat-label" text-anchor="middle" fill="white">Richard Parsons</text>
<line x1="1254.5" y1="346.0" x2="1538.2" y2="346.0" class="interval" stroke="#00491e" />
<text x="1396.4" y="351.0" class="boat-label" text-anchor="middle" fill="white">The Crusher</text>
<line x1="261.8" y1="370.0" x2="545.5" y2="370.0" class="interval" stroke="#00491e" />
<text x="403.6" y="375.0" class="boat-label" text-anchor="middle" fill="white">Music Man</text>
<line x1="687.3" y1="370.0" x2="970.9" y2="370.0" class="interval" stroke="#00491e" />
<text x="829.1" y="375.0" class="boat-label" text-anchor="middle" fill="white">Sven</text>
<line x1="1396.4" y1="370.0" x2="1680.0" y2="370.0" class="interval" stroke="#00491e" />
<text x="1538.2" y="375.0" class="boat-label" text-anchor="middle" fill="white">Virus Grey - TS 515 (B)</text>
<line x1="261.8" y1="394.0" x2="545.5" y2="394.0" class="interval" stroke="#00491e" />
<text x="403.6" y="399.0" class="boat-label" text-anchor="middle" fill="white">Nimbus 2000</text>
<line x1="829.1" y1="394.0" x2="1112.7" y2="394.0" class="interval" stroke="#00491e" />
<text x="970.9" y="399.0" class="boat-label" text-anchor="middle" fill="white">Sarah T</text>
<line x1="1396.4" y1="394.0" x2="1680.0" y2="394.0" class="interval" stroke="#00491e" />
<text x="1538.2" y="399.0" class="boat-label" text-anchor="middle" fill="white">Virus Yellow - Wallace</text>
<line x1="829.1" y1="418.0" x2="1112.7" y2="418.0" class="interval" stroke="#00491e" />
<text x="970.9" y="423.0" class="boat-label" text-anchor="middle" fill="white">Ulrich Harder</text>
<line x1="1396.4" y1="418.0" x2="1680.0" y2="418.0" class="interval" stroke="#00491e" />
<text x="1538.2" y="423.0" class="boat-label" text-anchor="middle" fill="white">Virus Yellow -Gromit</text>
<rect x="48" y="474" width="1704" height="272" rx="6" ry="6" class="panel" />
<rect x="64" y="488" width="1672" height="30" rx="4" ry="4" fill="#00491e" />
<text x="72.0" y="510.0" class="panel-title" text-anchor="start">Doubles</text>
<text x="1724.0" y="510.0" class="panel-count" text-anchor="end">12 boats</text>
<line x1="120.0" y1="536.0" x2="120.0" y2="728.0" class="grid" />
<text x="120.0" y="532.0" class="tick" text-anchor="middle">50 kg</text>
<line x1="261.8" y1="536.0" x2="261.8" y2="728.0" class="grid" />
<text x="261.8" y="532.0" class="tick" text-anchor="middle">55 kg</text>
<line x1="403.6" y1="536.0" x2="403.6" y2="728.0" class="grid" />
<text x="403.6" y="532.0" class="tick" text-anchor="middle">60 kg</text>
<line x1="545.5" y1="536.0" x2="545.5" y2="728.0" class="grid" />
<text x="545.5" y="532.0" class="tick" text-anchor="middle">65 kg</text>
<line x1="687.3" y1="536.0" x2="687.3" y2="728.0" class="grid" />
<text x="687.3" y="532.0" class="tick" text-anchor="middle">70 kg</text>
<line x1="829.1" y1="536.0" x2="829.1" y2="728.0" class="grid" />
<text x="829.1" y="532.0" class="tick" text-anchor="middle">75 kg</text>
<line x1="970.9" y1="536.0" x2="970.9" y2="728.0" class="grid" />
<text x="970.9" y="532.0" class="tick" text-anchor="middle">80 kg</text>
<line x1="1112.7" y1="536.0" x2="1112.7" y2="728.0" class="grid" />
<text x="1112.7" y="532.0" class="tick" text-anchor="middle">85 kg</text>
<line x1="1254.5" y1="536.0" x2="1254.5" y2="728.0" class="grid" />
<text x="1254.5" y="532.0" class="tick" text-anchor="middle">90 kg</text>
<line x1="1396.4" y1="536.0" x2="1396.4" y2="728.0" class="grid" />
<text x="1396.4" y="532.0" class="tick" text-anchor="middle">95 kg</text>
<line x1="1538.2" y1="536.0" x2="1538.2" y2="728.0" class="grid" />
<text x="1538.2" y="532.0" class="tick" text-anchor="middle">100 kg</text>
<line x1="1680.0" y1="536.0" x2="1680.0" y2="728.0" class="grid" />
<text x="1680.0" y="532.0" class="tick" text-anchor="middle">105 kg</text>
<line x1="120.0" y1="554.0" x2="1680.0" y2="554.0" class="baseline" />
<line x1="120.0" y1="578.0" x2="403.6" y2="578.0" class="interval" stroke="#00491e" />
<text x="261.8" y="583.0" class="boat-label" text-anchor="middle" fill="white">Undine</text>
<defs><linearGradient id="both-gradient-doubles-0-1" x1="0%" y1="100%" x2="100%" y2="0%"><stop offset="50%" stop-color="#00491e" /><stop offset="50%" stop-color="#49a868" /></linearGradient></defs>
<rect x="536.5" y="569.0" width="301.6" height="18" rx="9.0" ry="9.0" fill="url(#both-gradient-doubles-0-1)" />
<text x="687.3" y="583.0" class="boat-label" text-anchor="middle" fill="white">The Wibergs</text>
<line x1="1254.5" y1="578.0" x2="1538.2" y2="578.0" class="interval" stroke="#49a868" />
<text x="1396.4" y="583.0" class="boat-label" text-anchor="middle" fill="white">Ed Pair-cy</text>
<line x1="403.6" y1="602.0" x2="687.3" y2="602.0" class="interval" stroke="#00491e" />
<text x="545.5" y="607.0" class="boat-label" text-anchor="middle" fill="white">Inch by Inch</text>
<line x1="829.1" y1="602.0" x2="1112.7" y2="602.0" class="interval" stroke="#00491e" />
<text x="970.9" y="607.0" class="boat-label" text-anchor="middle" fill="white">Angus</text>
<defs><linearGradient id="both-gradient-doubles-2-0" x1="0%" y1="100%" x2="100%" y2="0%"><stop offset="50%" stop-color="#00491e" /><stop offset="50%" stop-color="#49a868" /></linearGradient></defs>
<rect x="394.6" y="617.0" width="301.6" height="18" rx="9.0" ry="9.0" fill="url(#both-gradient-doubles-2-0)" />
<text x="545.5" y="631.0" class="boat-label" text-anchor="middle" fill="white">JK&#x27;s</text>
<line x1="829.1" y1="626.0" x2="1112.7" y2="626.0" class="interval" stroke="#49a868" />
<text x="970.9" y="631.0" class="boat-label" text-anchor="middle" fill="white">Doug Melvin</text>
<line x1="403.6" y1="650.0" x2="687.3" y2="650.0" class="interval" stroke="#00491e" />
<text x="545.5" y="655.0" class="boat-label" text-anchor="middle" fill="white">Yansec</text>
<defs><linearGradient id="both-gradient-doubles-3-1" x1="0%" y1="100%" x2="100%" y2="0%"><stop offset="50%" stop-color="#00491e" /><stop offset="50%" stop-color="#49a868" /></linearGradient></defs>
<rect x="820.1" y="641.0" width="301.6" height="18" rx="9.0" ry="9.0" fill="url(#both-gradient-doubles-3-1)" />
<text x="970.9" y="655.0" class="boat-label" text-anchor="middle" fill="white">Snowy</text>
<line x1="545.5" y1="674.0" x2="829.1" y2="674.0" class="interval" stroke="#00491e" />
<text x="687.3" y="679.0" class="boat-label" text-anchor="middle" fill="white">Tracey Ann</text>
<defs><linearGradient id="both-gradient-doubles-5-0" x1="0%" y1="100%" x2="100%" y2="0%"><stop offset="50%" stop-color="#00491e" /><stop offset="50%" stop-color="#49a868" /></linearGradient></defs>
<rect x="536.5" y="689.0" width="301.6" height="18" rx="9.0" ry="9.0" fill="url(#both-gradient-doubles-5-0)" />
<circle cx="545.5" cy="698.0" r="5" class="marker" fill="#dc2626" />
<text x="687.3" y="703.0" class="boat-label" text-anchor="middle" fill="white">de la Mare</text>
<line x1="687.3" y1="722.0" x2="970.9" y2="722.0" class="interval" stroke="#00491e" />
<text x="829.1" y="727.0" class="boat-label" text-anchor="middle" fill="white">Paulaurarmoff</text>
<rect x="48" y="778" width="1704" height="248" rx="6" ry="6" class="panel" />
<rect x="64" y="792" width="1672" height="30" rx="4" ry="4" fill="#00491e" />
<text x="72.0" y="814.0" class="panel-title" text-anchor="start">Fours</text>
<text x="1724.0" y="814.0" class="panel-count" text-anchor="end">9 boats</text>
<line x1="120.0" y1="840.0" x2="120.0" y2="1008.0" class="grid" />
<text x="120.0" y="836.0" class="tick" text-anchor="middle">50 kg</text>
<line x1="261.8" y1="840.0" x2="261.8" y2="1008.0" class="grid" />
<text x="261.8" y="836.0" class="tick" text-anchor="middle">55 kg</text>
<line x1="403.6" y1="840.0" x2="403.6" y2="1008.0" class="grid" />
<text x="403.6" y="836.0" class="tick" text-anchor="middle">60 kg</text>
<line x1="545.5" y1="840.0" x2="545.5" y2="1008.0" class="grid" />
<text x="545.5" y="836.0" class="tick" text-anchor="middle">65 kg</text>
<line x1="687.3" y1="840.0" x2="687.3" y2="1008.0" class="grid" />
<text x="687.3" y="836.0" class="tick" text-anchor="middle">70 kg</text>
<line x1="829.1" y1="840.0" x2="829.1" y2="1008.0" class="grid" />
<text x="829.1" y="836.0" class="tick" text-anchor="middle">75 kg</text>
<line x1="970.9" y1="840.0" x2="970.9" y2="1008.0" class="grid" />
<text x="970.9" y="836.0" class="tick" text-anchor="middle">80 kg</text>
<line x1="1112.7" y1="840.0" x2="1112.7" y2="1008.0" class="grid" />
<text x="1112.7" y="836.0" class="tick" text-anchor="middle">85 kg</text>
<line x1="1254.5" y1="840.0" x2="1254.5" y2="1008.0" class="grid" />
<text x="1254.5" y="836.0" class="tick" text-anchor="middle">90 kg</text>
<line x1="1396.4" y1="840.0" x2="1396.4" y2="1008.0" class="grid" />
<text x="1396.4" y="836.0" class="tick" text-anchor="middle">95 kg</text>
<line x1="1538.2" y1="840.0" x2="1538.2" y2="1008.0" class="grid" />
<text x="1538.2" y="836.0" class="tick" text-anchor="middle">100 kg</text>
<line x1="1680.0" y1="840.0" x2="1680.0" y2="1008.0" class="grid" />
<text x="1680.0" y="836.0" class="tick" text-anchor="middle">105 kg</text>
<line x1="120.0" y1="858.0" x2="1680.0" y2="858.0" class="baseline" />
<defs><linearGradient id="both-gradient-fours-0-0" x1="0%" y1="100%" x2="100%" y2="0%"><stop offset="50%" stop-color="#00491e" /><stop offset="50%" stop-color="#49a868" /></linearGradient></defs>
<rect x="479.7" y="873.0" width="301.6" height="18" rx="9.0" ry="9.0" fill="url(#both-gradient-fours-0-0)" />
<circle cx="488.7" cy="882.0" r="5" class="marker" fill="#dc2626" />
<text x="630.5" y="887.0" class="boat-label" text-anchor="middle" fill="white">Vixen</text>
<line x1="829.1" y1="882.0" x2="1112.7" y2="882.0" class="interval" stroke="#49a868" />
<text x="970.9" y="887.0" class="boat-label" text-anchor="middle" fill="white">SITA</text>
<defs><linearGradient id="both-gradient-fours-1-0" x1="0%" y1="100%" x2="100%" y2="0%"><stop offset="50%" stop-color="#00491e" /><stop offset="50%" stop-color="#49a868" /></linearGradient></defs>
<rect x="536.5" y="897.0" width="301.6" height="18" rx="9.0" ry="9.0" fill="url(#both-gradient-fours-1-0)" />
<text x="687.3" y="911.0" class="boat-label" text-anchor="middle" fill="white">Shaker Baker</text>
<defs><linearGradient id="both-gradient-fours-1-1" x1="0%" y1="100%" x2="100%" y2="0%"><stop offset="50%" stop-color="#00491e" /><stop offset="50%" stop-color="#49a868" /></linearGradient></defs>
<rect x="961.9" y="897.0" width="301.6" height="18" rx="9.0" ry="9.0" fill="url(#both-gradient-fours-1-1)" />
<circle cx="970.9" cy="906.0" r="5" class="marker" fill="#dc2626" />
<text x="1112.7" y="911.0" class="boat-label" text-anchor="middle" fill="white">Dalesman</text>
<line x1="687.3" y1="930.0" x2="970.9" y2="930.0" class="interval" stroke="#00491e" />
<text x="829.1" y="935.0" class="boat-label" text-anchor="middle" fill="white">Farn</text>
<line x1="1112.7" y1="930.0" x2="1396.4" y2="930.0" class="interval" stroke="#49a868" />
<circle cx="1112.7" cy="930.0" r="5" class="marker" fill="#dc2626" />
<text x="1254.5" y="935.0" class="boat-label" text-anchor="middle" fill="white">Hagaros</text>
<line x1="687.3" y1="954.0" x2="970.9" y2="954.0" class="interval" stroke="#49a868" />
<circle cx="687.3" cy="954.0" r="5" class="marker" fill="#dc2626" />
<text x="829.1" y="959.0" class="boat-label" text-anchor="middle" fill="white">Fortitude</text>
<line x1="829.1" y1="978.0" x2="1112.7" y2="978.0" class="interval" stroke="#00491e" />
<text x="970.9" y="983.0" class="boat-label" text-anchor="middle" fill="white">Water beetle</text>
<defs><linearGradient id="both-gradient-fours-5-0" x1="0%" y1="100%" x2="100%" y2="0%"><stop offset="50%" stop-color="#00491e" /><stop offset="50%" stop-color="#49a868" /></linearGradient></defs>
<rect x="961.9" y="993.0" width="301.6" height="18" rx="9.0" ry="9.0" fill="url(#both-gradient-fours-5-0)" />
<text x="1112.7" y="1007.0" class="boat-label" text-anchor="middle" fill="white">Tricky</text>
<rect x="48" y="1058" width="1704" height="248" rx="6" ry="6" class="panel" />
<rect x="64" y="1072" width="1672" height="30" rx="4" ry="4" fill="#00491e" />
<text x="72.0" y="1094.0" class="panel-title" text-anchor="start">Coxed Fours</text>
<text x="1724.0" y="1094.0" class="panel-count" text-anchor="end">10 boats</text>
<line x1="120.0" y1="1120.0" x2="120.0" y2="1288.0" class="grid" />
<text x="120.0" y="1116.0" class="tick" text-anchor="middle">50 kg</text>
<line x1="261.8" y1="1120.0" x2="261.8" y2="1288.0" class="grid" />
<text x="261.8" y="1116.0" class="tick" text-anchor="middle">55 kg</text>
<line x1="403.6" y1="1120.0" x2="403.6" y2="1288.0" class="grid" />
<text x="403.6" y="1116.0" class="tick" text-anchor="middle">60 kg</text>
<line x1="545.5" y1="1120.0" x2="545.5" y2="1288.0" class="grid" />
<text x="545.5" y="1116.0" class="tick" text-anchor="middle">65 kg</text>
<line x1="687.3" y1="1120.0" x2="687.3" y2="1288.0" class="grid" />
<text x="687.3" y="1116.0" class="tick" text-anchor="middle">70 kg</text>
<line x1="829.1" y1="1120.0" x2="829.1" y2="1288.0" class="grid" />
<text x="829.1" y="1116.0" class="tick" text-anchor="middle">75 kg</text>
<line x1="970.9" y1="1120.0" x2="970.9" y2="1288.0" class="grid" />
<text x="970.9" y="1116.0" class="tick" text-anchor="middle">80 kg</text>
<line x1="1112.7" y1="1120.0" x2="1112.7" y2="1288.0" class="grid" />
<text x="1112.7" y="1116.0" class="tick" text-anchor="middle">85 kg</text>
<line x1="1254.5" y1="1120.0" x2="1254.5" y2="1288.0" class="grid" />
<text x="1254.5" y="1116.0" class="tick" text-anchor="middle">90 kg</text>
<line x1="1396.4" y1="1120.0" x2="1396.4" y2="1288.0" class="grid" />
<text x="1396.4" y="1116.0" class="tick" text-anchor="middle">95 kg</text>
<line x1="1538.2" y1="1120.0" x2="1538.2" y2="1288.0" class="grid" />
<text x="1538.2" y="1116.0" class="tick" text-anchor="middle">100 kg</text>
<line x1="1680.0" y1="1120.0" x2="1680.0" y2="1288.0" class="grid" />
<text x="1680.0" y="1116.0" class="tick" text-anchor="middle">105 kg</text>
<line x1="120.0" y1="1138.0" x2="1680.0" y2="1138.0" class="baseline" />
<defs><linearGradient id="both-gradient-coxed-fours-0-0" x1="0%" y1="100%" x2="100%" y2="0%"><stop offset="50%" stop-color="#00491e" /><stop offset="50%" stop-color="#49a868" /></linearGradient></defs>
<rect x="111.0" y="1153.0" width="301.6" height="18" rx="9.0" ry="9.0" fill="url(#both-gradient-coxed-fours-0-0)" />
<text x="261.8" y="1167.0" class="boat-label" text-anchor="middle" fill="white">Water Witch</text>
<defs><linearGradient id="both-gradient-coxed-fours-0-1" x1="0%" y1="100%" x2="100%" y2="0%"><stop offset="50%" stop-color="#00491e" /><stop offset="50%" stop-color="#49a868" /></linearGradient></defs>
<rect x="536.5" y="1153.0" width="301.6" height="18" rx="9.0" ry="9.0" fill="url(#both-gradient-coxed-fours-0-1)" />
<text x="687.3" y="1167.0" class="boat-label" text-anchor="middle" fill="white">Davina Lund</text>
<line x1="970.9" y1="1162.0" x2="1254.5" y2="1162.0" class="interval" stroke="#49a868" />
<text x="1112.7" y="1167.0" class="boat-label" text-anchor="middle" fill="white">City of Bristol</text>
<line x1="403.6" y1="1186.0" x2="687.3" y2="1186.0" class="interval" stroke="#49a868" />
<circle cx="403.6" cy="1186.0" r="5" class="marker" fill="#dc2626" />
<text x="545.5" y="1191.0" class="boat-label" text-anchor="middle" fill="white">High</text>
<line x1="829.1" y1="1186.0" x2="1112.7" y2="1186.0" class="interval" stroke="#49a868" />
<text x="970.9" y="1191.0" class="boat-label" text-anchor="middle" fill="white">The Royal and Ancient</text>
<defs><linearGradient id="both-gradient-coxed-fours-2-0" x1="0%" y1="100%" x2="100%" y2="0%"><stop offset="50%" stop-color="#00491e" /><stop offset="50%" stop-color="#49a868" /></linearGradient></defs>
<rect x="394.6" y="1201.0" width="301.6" height="18" rx="9.0" ry="9.0" fill="url(#both-gradient-coxed-fours-2-0)" />
<circle cx="403.6" cy="1210.0" r="5" class="marker" fill="#dc2626" />
<text x="545.5" y="1215.0" class="boat-label" text-anchor="middle" fill="white">Kath &amp; Rog</text>
<line x1="1112.7" y1="1210.0" x2="1396.4" y2="1210.0" class="interval" stroke="#49a868" />
<circle cx="1112.7" cy="1210.0" r="5" class="marker" fill="#dc2626" />
<text x="1254.5" y="1215.0" class="boat-label" text-anchor="middle" fill="white">Out of Nowhere</text>
<defs><linearGradient id="both-gradient-coxed-fours-3-0" x1="0%" y1="100%" x2="100%" y2="0%"><stop offset="50%" stop-color="#00491e" /><stop offset="50%" stop-color="#49a868" /></linearGradient></defs>
<rect x="394.6" y="1225.0" width="301.6" height="18" rx="9.0" ry="9.0" fill="url(#both-gradient-coxed-fours-3-0)" />
<text x="545.5" y="1239.0" class="boat-label" text-anchor="middle" fill="white">Neptune</text>
<defs><linearGradient id="both-gradient-coxed-fours-4-0" x1="0%" y1="100%" x2="100%" y2="0%"><stop offset="50%" stop-color="#00491e" /><stop offset="50%" stop-color="#49a868" /></linearGradient></defs>
<rect x="536.5" y="1249.0" width="301.6" height="18" rx="9.0" ry="9.0" fill="url(#both-gradient-coxed-fours-4-0)" />
<text x="687.3" y="1263.0" class="boat-label" text-anchor="middle" fill="white">Inspired by Murphy</text>
<defs><linearGradient id="both-gradient-coxed-fours-5-0" x1="0%" y1="100%" x2="100%" y2="0%"><stop offset="50%" stop-color="#00491e" /><stop offset="50%" stop-color="#49a868" /></linearGradient></defs>
<rect x="536.5" y="1273.0" width="301.6" height="18" rx="9.0" ry="9.0" fill="url(#both-gradient-coxed-fours-5-0)" />
<circle cx="545.5" cy="1282.0" r="5" class="marker" fill="#dc2626" />
<text x="687.3" y="1287.0" class="boat-label" text-anchor="middle" fill="white">Paula</text>
<rect x="48" y="1338" width="1704" height="248" rx="6" ry="6" class="panel" />
<rect x="64" y="1352" width="1672" height="30" rx="4" ry="4" fill="#00491e" />
<text x="72.0" y="1374.0" class="panel-title" text-anchor="start">Eights</text>
<text x="1724.0" y="1374.0" class="panel-count" text-anchor="end">9 boats</text>
<line x1="120.0" y1="1400.0" x2="120.0" y2="1568.0" class="grid" />
<text x="120.0" y="1396.0" class="tick" text-anchor="middle">50 kg</text>
<line x1="261.8" y1="1400.0" x2="261.8" y2="1568.0" class="grid" />
<text x="261.8" y="1396.0" class="tick" text-anchor="middle">55 kg</text>
<line x1="403.6" y1="1400.0" x2="403.6" y2="1568.0" class="grid" />
<text x="403.6" y="1396.0" class="tick" text-anchor="middle">60 kg</text>
<line x1="545.5" y1="1400.0" x2="545.5" y2="1568.0" class="grid" />
<text x="545.5" y="1396.0" class="tick" text-anchor="middle">65 kg</text>
<line x1="687.3" y1="1400.0" x2="687.3" y2="1568.0" class="grid" />
<text x="687.3" y="1396.0" class="tick" text-anchor="middle">70 kg</text>
<line x1="829.1" y1="1400.0" x2="829.1" y2="1568.0" class="grid" />
<text x="829.1" y="1396.0" class="tick" text-anchor="middle">75 kg</text>
<line x1="970.9" y1="1400.0" x2="970.9" y2="1568.0" class="grid" />
<text x="970.9" y="1396.0" class="tick" text-anchor="middle">80 kg</text>
<line x1="1112.7" y1="1400.0" x2="1112.7" y2="1568.0" class="grid" />
<text x="1112.7" y="1396.0" class="tick" text-anchor="middle">85 kg</text>
<line x1="1254.5" y1="1400.0" x2="1254.5" y2="1568.0" class="grid" />
<text x="1254.5" y="1396.0" class="tick" text-anchor="middle">90 kg</text>
<line x1="1396.4" y1="1400.0" x2="1396.4" y2="1568.0" class="grid" />
<text x="1396.4" y="1396.0" class="tick" text-anchor="middle">95 kg</text>
<line x1="1538.2" y1="1400.0" x2="1538.2" y2="1568.0" class="grid" />
<text x="1538.2" y="1396.0" class="tick" text-anchor="middle">100 kg</text>
<line x1="1680.0" y1="1400.0" x2="1680.0" y2="1568.0" class="grid" />
<text x="1680.0" y="1396.0" class="tick" text-anchor="middle">105 kg</text>
<line x1="120.0" y1="1418.0" x2="1680.0" y2="1418.0" class="baseline" />
<line x1="545.5" y1="1442.0" x2="829.1" y2="1442.0" class="interval" stroke="#49a868" />
<text x="687.3" y="1447.0" class="boat-label" text-anchor="middle" fill="white">Cory</text>
<line x1="970.9" y1="1442.0" x2="1254.5" y2="1442.0" class="interval" stroke="#49a868" />
<text x="1112.7" y="1447.0" class="boat-label" text-anchor="middle" fill="white">Massive Attack II</text>
<line x1="545.5" y1="1466.0" x2="829.1" y2="1466.0" class="interval" stroke="#49a868" />
<circle cx="545.5" cy="1466.0" r="5" class="marker" fill="#dc2626" />
<text x="687.3" y="1471.0" class="boat-label" text-anchor="middle" fill="white">Donne Forti</text>
<line x1="970.9" y1="1466.0" x2="1254.5" y2="1466.0" class="interval" stroke="#49a868" />
<circle cx="970.9" cy="1466.0" r="5" class="marker" fill="#dc2626" />
<text x="1112.7" y="1471.0" class="boat-label" text-anchor="middle" fill="white">Paknet</text>
<line x1="545.5" y1="1490.0" x2="829.1" y2="1490.0" class="interval" stroke="#49a868" />
<circle cx="545.5" cy="1490.0" r="5" class="marker" fill="#dc2626" />
<text x="687.3" y="1495.0" class="boat-label" text-anchor="middle" fill="white">Stämpfli</text>
<line x1="970.9" y1="1490.0" x2="1254.5" y2="1490.0" class="interval" stroke="#49a868" />
<text x="1112.7" y="1495.0" class="boat-label" text-anchor="middle" fill="white">Stagg</text>
<line x1="545.5" y1="1514.0" x2="829.1" y2="1514.0" class="interval" stroke="#49a868" />
<text x="687.3" y="1519.0" class="boat-label" text-anchor="middle" fill="white">Viridor</text>
<defs><linearGradient id="both-gradient-eights-4-0" x1="0%" y1="100%" x2="100%" y2="0%"><stop offset="50%" stop-color="#00491e" /><stop offset="50%" stop-color="#49a868" /></linearGradient></defs>
<rect x="678.3" y="1529.0" width="301.6" height="18" rx="9.0" ry="9.0" fill="url(#both-gradient-eights-4-0)" />
<text x="829.1" y="1543.0" class="boat-label" text-anchor="middle" fill="white">Beetroot</text>
<line x1="829.1" y1="1562.0" x2="1112.7" y2="1562.0" class="interval" stroke="#49a868" />
<text x="970.9" y="1567.0" class="boat-label" text-anchor="middle" fill="white">Head Turner</text>
</svg>