<svg xmlns="http://www.w3.org/2000/svg" width="1800" height="2348" viewBox="0 0 1800 2348" role="img" aria-labelledby="title subtitle">
<style>

        .bg { fill: #ffffff; }
        .panel { fill: #fcfbf6; stroke: #8ea79d; stroke-width: 2; }
        .kicker { font: 700 18px 'IBM Plex Sans', 'Helvetica Neue', Arial, sans-serif; fill: #5b6f66; letter-spacing: 1.8px; text-transform: uppercase; }
        .title { font: 800 40px 'IBM Plex Sans', 'Helvetica Neue', Arial, sans-serif; fill: #00543c; letter-spacing: 0.4px; }
        .subtitle { font: 400 17px 'IBM Plex Sans', 'Helvetica Neue', Arial, sans-serif; fill: #5b6f66; }
        .legend { font: 600 14px 'IBM Plex Sans', 'Helvetica Neue', Arial, sans-serif; fill: #14352b; }
        .panel-title { font: 800 22px 'IBM Plex Sans', 'Helvetica Neue', Arial, sans-serif; fill: #f7f5ef; letter-spacing: 0.6px; }
        .tick { font: 500 12px 'IBM Plex Sans', 'Helvetica Neue', Arial, sans-serif; fill: #5b6f66; }
        .boat-label { font: 500 13px 'IBM Plex Sans', 'Helvetica Neue', Arial, sans-serif; fill: white; }
        .footer { font: 400 14px 'IBM Plex Sans', 'Helvetica Neue', Arial, sans-serif; fill: #5b6f66; }
        .grid { stroke: #d7dfda; stroke-width: 1; }
        .baseline { stroke: #8ea79d; stroke-width: 1.25; }
        .interval { stroke-width: 15; stroke-linecap: round; fill: none; }
        .marker { stroke: white; stroke-width: 2; }
        
</style>
<rect class="bg" width="1800" height="2348" />
<title id="title">Club boat weight coverage by boat type</title>
<desc id="subtitle"></desc>
<text x="72.0" y="40.0" class="kicker" text-anchor="start">City of Bristol Rowing Club</text>
<text x="72.0" y="82.0" class="title" text-anchor="start">Boat Weight Coverage</text>
<text x="72.0" y="114.0" class="subtitle" text-anchor="start">Coverage uses stated weight ± 5 kg.</text>
<text x="72.0" y="135.0" class="subtitle" text-anchor="start">Deleted boats, and private boats are excluded.</text>
<line x1="1260" x2="1294" y1="70" y2="70" class="interval" stroke="#0b5d46" />
<text x="1308.0" y="75.0" class="legend" text-anchor="start">scull</text>
<line x1="1260" x2="1294" y1="96" y2="96" class="interval" stroke="#1e40af" />
<text x="1308.0" y="101.0" class="legend" text-anchor="start">sweep</text>
<defs>
<clipPath id="legend-both-clip"><rect x="1252.5" y="114.5" width="49.0" height="15" rx="7.5" ry="7.5" /></clipPath>
</defs>
<rect x="1252.5" y="114.5" width="49.0" height="15" rx="7.5" ry="7.5" fill="#0b5d46" />
<rect x="1252.5" y="122.0" width="49.0" height="7.5" fill="#1e40af" clip-path="url(#legend-both-clip)" />
<text x="1308.0" y="127.0" class="legend" text-anchor="start">both</text>
<rect x="48" y="170" width="1704" height="632" rx="6" ry="6" class="panel" />
<rect x="64" y="184" width="1672" height="30" rx="4" ry="4" fill="#00543c" />
<text x="72.0" y="206.0" class="panel-title" text-anchor="start">Singles</text>
<line x1="120.0" y1="232.0" x2="120.0" y2="784.0" class="grid" />
<text x="120.0" y="228.0" class="tick" text-anchor="middle">45 kg</text>
<line x1="250.0" y1="232.0" x2="250.0" y2="784.0" class="grid" />
<text x="250.0" y="228.0" class="tick" text-anchor="middle">50 kg</text>
<line x1="380.0" y1="232.0" x2="380.0" y2="784.0" class="grid" />
<text x="380.0" y="228.0" class="tick" text-anchor="middle">55 kg</text>
<line x1="510.0" y1="232.0" x2="510.0" y2="784.0" class="grid" />
<text x="510.0" y="228.0" class="tick" text-anchor="middle">60 kg</text>
<line x1="640.0" y1="232.0" x2="640.0" y2="784.0" class="grid" />
<text x="640.0" y="228.0" class="tick" text-anchor="middle">65 kg</text>
<line x1="770.0" y1="232.0" x2="770.0" y2="784.0" class="grid" />
<text x="770.0" y="228.0" class="tick" text-anchor="middle">70 kg</text>
<line x1="900.0" y1="232.0" x2="900.0" y2="784.0" class="grid" />
<text x="900.0" y="228.0" class="tick" text-anchor="middle">75 kg</text>
<line x1="1030.0" y1="232.0" x2="1030.0" y2="784.0" class="grid" />
<text x="1030.0" y="228.0" class="tick" text-anchor="middle">80 kg</text>
<line x1="1160.0" y1="232.0" x2="1160.0" y2="784.0" class="grid" />
<text x="1160.0" y="228.0" class="tick" text-anchor="middle">85 kg</text>
<line x1="1290.0" y1="232.0" x2="1290.0" y2="784.0" class="grid" />
<text x="1290.0" y="228.0" class="tick" text-anchor="middle">90 kg</text>
<line x1="1420.0" y1="232.0" x2="1420.0" y2="784.0" class="grid" />
<text x="1420.0" y="228.0" class="tick" text-anchor="middle">95 kg</text>
<line x1="1550.0" y1="232.0" x2="1550.0" y2="784.0" class="grid" />
<text x="1550.0" y="228.0" class="tick" text-anchor="middle">100 kg</text>
<line x1="1680.0" y1="232.0" x2="1680.0" y2="784.0" class="grid" />
<text x="1680.0" y="228.0" class="tick" text-anchor="middle">105 kg</text>
<line x1="120.0" y1="250.0" x2="1680.0" y2="250.0" class="baseline" />
<line x1="224.0" y1="274.0" x2="484.0" y2="274.0" class="interval" stroke="#0b5d46" />
<text x="354.0" y="278.0" class="boat-label" text-anchor="middle" fill="white">Firefly</text>
<line x1="250.0" y1="298.0" x2="510.0" y2="298.0" class="interval" stroke="#0b5d46" />
<text x="380.0" y="302.0" class="boat-label" text-anchor="middle" fill="white">Aunty Sarah</text>
<line x1="250.0" y1="322.0" x2="510.0" y2="322.0" class="interval" stroke="#0b5d46" />
<text x="380.0" y="326.0" class="boat-label" text-anchor="middle" fill="white">Unleash the Beast</text>
<line x1="380.0" y1="346.0" x2="640.0" y2="346.0" class="interval" stroke="#0b5d46" />
<text x="510.0" y="350.0" class="boat-label" text-anchor="middle" fill="white">Margaret</text>
<line x1="380.0" y1="370.0" x2="640.0" y2="370.0" class="interval" stroke="#0b5d46" />
<text x="510.0" y="374.0" class="boat-label" text-anchor="middle" fill="white">Music Man</text>
<line x1="380.0" y1="394.0" x2="640.0" y2="394.0" class="interval" stroke="#0b5d46" />
<text x="510.0" y="398.0" class="boat-label" text-anchor="middle" fill="white">Nimbus 2000</text>
<line x1="510.0" y1="418.0" x2="770.0" y2="418.0" class="interval" stroke="#0b5d46" />
<circle cx="510.0" cy="418.0" r="5" class="marker" fill="#dc2626" />
<text x="640.0" y="422.0" class="boat-label" text-anchor="middle" fill="white">Tom Thie</text>
<line x1="640.0" y1="442.0" x2="900.0" y2="442.0" class="interval" stroke="#0b5d46" />
<text x="770.0" y="446.0" class="boat-label" text-anchor="middle" fill="white">Valentine</text>
<line x1="770.0" y1="466.0" x2="1030.0" y2="466.0" class="interval" stroke="#0b5d46" />
<text x="900.0" y="470.0" class="boat-label" text-anchor="middle" fill="white">Pointless</text>
<line x1="770.0" y1="490.0" x2="1030.0" y2="490.0" class="interval" stroke="#0b5d46" />
<text x="900.0" y="494.0" class="boat-label" text-anchor="middle" fill="white">Richard Parsons</text>
<line x1="770.0" y1="514.0" x2="1030.0" y2="514.0" class="interval" stroke="#0b5d46" />
<text x="900.0" y="518.0" class="boat-label" text-anchor="middle" fill="white">Sven</text>
<line x1="900.0" y1="538.0" x2="1160.0" y2="538.0" class="interval" stroke="#0b5d46" />
<text x="1030.0" y="542.0" class="boat-label" text-anchor="middle" fill="white">Roesie</text>
<line x1="900.0" y1="562.0" x2="1160.0" y2="562.0" class="interval" stroke="#0b5d46" />
<text x="1030.0" y="566.0" class="boat-label" text-anchor="middle" fill="white">Sarah T</text>
<line x1="900.0" y1="586.0" x2="1160.0" y2="586.0" class="interval" stroke="#0b5d46" />
<text x="1030.0" y="590.0" class="boat-label" text-anchor="middle" fill="white">Ulrich Harder</text>
<line x1="1030.0" y1="610.0" x2="1290.0" y2="610.0" class="interval" stroke="#0b5d46" />
<text x="1160.0" y="614.0" class="boat-label" text-anchor="middle" fill="white">Refresh Yourself</text>
<line x1="1160.0" y1="634.0" x2="1420.0" y2="634.0" class="interval" stroke="#0b5d46" />
<text x="1290.0" y="638.0" class="boat-label" text-anchor="middle" fill="white">Goat ee</text>
<line x1="1212.0" y1="658.0" x2="1472.0" y2="658.0" class="interval" stroke="#0b5d46" />
<text x="1342.0" y="662.0" class="boat-label" text-anchor="middle" fill="white">WhyKnot</text>
<line x1="1290.0" y1="682.0" x2="1550.0" y2="682.0" class="interval" stroke="#0b5d46" />
<text x="1420.0" y="686.0" class="boat-label" text-anchor="middle" fill="white">The Crusher</text>
<line x1="1420.0" y1="706.0" x2="1680.0" y2="706.0" class="interval" stroke="#0b5d46" />
<text x="1550.0" y="710.0" class="boat-label" text-anchor="middle" fill="white">Virus Grey - TS 515 (A)</text>
<line x1="1420.0" y1="730.0" x2="1680.0" y2="730.0" class="interval" stroke="#0b5d46" />
<text x="1550.0" y="734.0" class="boat-label" text-anchor="middle" fill="white">Virus Grey - TS 515 (B)</text>
<line x1="1420.0" y1="754.0" x2="1680.0" y2="754.0" class="interval" stroke="#0b5d46" />
<text x="1550.0" y="758.0" class="boat-label" text-anchor="middle" fill="white">Virus Yellow - Wallace</text>
<line x1="1420.0" y1="778.0" x2="1680.0" y2="778.0" class="interval" stroke="#0b5d46" />
<text x="1550.0" y="782.0" class="boat-label" text-anchor="middle" fill="white">Virus Yellow -Gromit</text>
<rect x="48" y="834" width="1704" height="392" rx="6" ry="6" class="panel" />
<rect x="64" y="848" width="1672" height="30" rx="4" ry="4" fill="#00543c" />
<text x="72.0" y="870.0" class="panel-title" text-anchor="start">Doubles</text>
<line x1="120.0" y1="896.0" x2="120.0" y2="1208.0" class="grid" />
<text x="120.0" y="892.0" class="tick" text-anchor="middle">45 kg</text>
<line x1="250.0" y1="896.0" x2="250.0" y2="1208.0" class="grid" />
<text x="250.0" y="892.0" class="tick" text-anchor="middle">50 kg</text>
<line x1="380.0" y1="896.0" x2="380.0" y2="1208.0" class="grid" />
<text x="380.0" y="892.0" class="tick" text-anchor="middle">55 kg</text>
<line x1="510.0" y1="896.0" x2="510.0" y2="1208.0" class="grid" />
<text x="510.0" y="892.0" class="tick" text-anchor="middle">60 kg</text>
<line x1="640.0" y1="896.0" x2="640.0" y2="1208.0" class="grid" />
<text x="640.0" y="892.0" class="tick" text-anchor="middle">65 kg</text>
<line x1="770.0" y1="896.0" x2="770.0" y2="1208.0" class="grid" />
<text x="770.0" y="892.0" class="tick" text-anchor="middle">70 kg</text>
<line x1="900.0" y1="896.0" x2="900.0" y2="1208.0" class="grid" />
<text x="900.0" y="892.0" class="tick" text-anchor="middle">75 kg</text>
<line x1="1030.0" y1="896.0" x2="1030.0" y2="1208.0" class="grid" />
<text x="1030.0" y="892.0" class="tick" text-anchor="middle">80 kg</text>
<line x1="1160.0" y1="896.0" x2="1160.0" y2="1208.0" class="grid" />
<text x="1160.0" y="892.0" class="tick" text-anchor="middle">85 kg</text>
<line x1="1290.0" y1="896.0" x2="1290.0" y2="1208.0" class="grid" />
<text x="1290.0" y="892.0" class="tick" text-anchor="middle">90 kg</text>
<line x1="1420.0" y1="896.0" x2="1420.0" y2="1208.0" class="grid" />
<text x="1420.0" y="892.0" class="tick" text-anchor="middle">95 kg</text>
<line x1="1550.0" y1="896.0" x2="1550.0" y2="1208.0" class="grid" />
<text x="1550.0" y="892.0" class="tick" text-anchor="middle">100 kg</text>
<line x1="1680.0" y1="896.0" x2="1680.0" y2="1208.0" class="grid" />
<text x="1680.0" y="892.0" class="tick" text-anchor="middle">105 kg</text>
<line x1="120.0" y1="914.0" x2="1680.0" y2="914.0" class="baseline" />
<line x1="250.0" y1="938.0" x2="510.0" y2="938.0" class="interval" stroke="#0b5d46" />
<text x="380.0" y="942.0" class="boat-label" text-anchor="middle" fill="white">Undine</text>
<line x1="510.0" y1="962.0" x2="770.0" y2="962.0" class="interval" stroke="#0b5d46" />
<text x="640.0" y="966.0" class="boat-label" text-anchor="middle" fill="white">Inch by Inch</text>
<defs><clipPath id="both-clip-doubles-2"><rect x="502.5" y="978.5" width="275.0" height="15" rx="7.5" ry="7.5" /></clipPath></defs>
<rect x="502.5" y="978.5" width="275.0" height="15" rx="7.5" ry="7.5" fill="#0b5d46" />
<rect x="502.5" y="986.0" width="275.0" height="7.5" fill="#1e40af" clip-path="url(#both-clip-doubles-2)" />
<text x="640.0" y="990.0" class="boat-label" text-anchor="middle" fill="white">JK&#x27;s</text>
<line x1="510.0" y1="1010.0" x2="770.0" y2="1010.0" class="interval" stroke="#0b5d46" />
<text x="640.0" y="1014.0" class="boat-label" text-anchor="middle" fill="white">Yansec</text>
<defs><clipPath id="both-clip-doubles-4"><rect x="632.5" y="1026.5" width="275.0" height="15" rx="7.5" ry="7.5" /></clipPath></defs>
<rect x="632.5" y="1026.5" width="275.0" height="15" rx="7.5" ry="7.5" fill="#0b5d46" />
<rect x="632.5" y="1034.0" width="275.0" height="7.5" fill="#1e40af" clip-path="url(#both-clip-doubles-4)" />
<text x="770.0" y="1038.0" class="boat-label" text-anchor="middle" fill="white">The Wibergs</text>
<line x1="640.0" y1="1058.0" x2="900.0" y2="1058.0" class="interval" stroke="#0b5d46" />
<text x="770.0" y="1062.0" class="boat-label" text-anchor="middle" fill="white">Tracey Ann</text>
<defs><clipPath id="both-clip-doubles-6"><rect x="632.5" y="1074.5" width="275.0" height="15" rx="7.5" ry="7.5" /></clipPath></defs>
<rect x="632.5" y="1074.5" width="275.0" height="15" rx="7.5" ry="7.5" fill="#0b5d46" />
<rect x="632.5" y="1082.0" width="275.0" height="7.5" fill="#1e40af" clip-path="url(#both-clip-doubles-6)" />
<circle cx="640.0" cy="1082.0" r="5" class="marker" fill="#dc2626" />
<text x="770.0" y="1086.0" class="boat-label" text-anchor="middle" fill="white">de la Mare</text>
<line x1="770.0" y1="1106.0" x2="1030.0" y2="1106.0" class="interval" stroke="#0b5d46" />
<text x="900.0" y="1110.0" class="boat-label" text-anchor="middle" fill="white">Paulaurarmoff</text>
<line x1="900.0" y1="1130.0" x2="1160.0" y2="1130.0" class="interval" stroke="#0b5d46" />
<text x="1030.0" y="1134.0" class="boat-label" text-anchor="middle" fill="white">Angus</text>
<line x1="900.0" y1="1154.0" x2="1160.0" y2="1154.0" class="interval" stroke="#1e40af" />
<text x="1030.0" y="1158.0" class="boat-label" text-anchor="middle" fill="white">Doug Melvin</text>
<defs><clipPath id="both-clip-doubles-10"><rect x="892.5" y="1170.5" width="275.0" height="15" rx="7.5" ry="7.5" /></clipPath></defs>
<rect x="892.5" y="1170.5" width="275.0" height="15" rx="7.5" ry="7.5" fill="#0b5d46" />
<rect x="892.5" y="1178.0" width="275.0" height="7.5" fill="#1e40af" clip-path="url(#both-clip-doubles-10)" />
<text x="1030.0" y="1182.0" class="boat-label" text-anchor="middle" fill="white">Snowy</text>
<line x1="1290.0" y1="1202.0" x2="1550.0" y2="1202.0" class="interval" stroke="#1e40af" />
<text x="1420.0" y="1206.0" class="boat-label" text-anchor="middle" fill="white">Ed Pair-cy</text>
<rect x="48" y="1258" width="1704" height="320" rx="6" ry="6" class="panel" />
<rect x="64" y="1272" width="1672" height="30" rx="4" ry="4" fill="#00543c" />
<text x="72.0" y="1294.0" class="panel-title" text-anchor="start">Fours</text>
<line x1="120.0" y1="1320.0" x2="120.0" y2="1560.0" class="grid" />
<text x="120.0" y="1316.0" class="tick" text-anchor="middle">45 kg</text>
<line x1="250.0" y1="1320.0" x2="250.0" y2="1560.0" class="grid" />
<text x="250.0" y="1316.0" class="tick" text-anchor="middle">50 kg</text>
<line x1="380.0" y1="1320.0" x2="380.0" y2="1560.0" class="grid" />
<text x="380.0" y="1316.0" class="tick" text-anchor="middle">55 kg</text>
<line x1="510.0" y1="1320.0" x2="510.0" y2="1560.0" class="grid" />
<text x="510.0" y="1316.0" class="tick" text-anchor="middle">60 kg</text>
<line x1="640.0" y1="1320.0" x2="640.0" y2="1560.0" class="grid" />
<text x="640.0" y="1316.0" class="tick" text-anchor="middle">65 kg</text>
<line x1="770.0" y1="1320.0" x2="770.0" y2="1560.0" class="grid" />
<text x="770.0" y="1316.0" class="tick" text-anchor="middle">70 kg</text>
<line x1="900.0" y1="1320.0" x2="900.0" y2="1560.0" class="grid" />
<text x="900.0" y="1316.0" class="tick" text-anchor="middle">75 kg</text>
<line x1="1030.0" y1="1320.0" x2="1030.0" y2="1560.0" class="grid" />
<text x="1030.0" y="1316.0" class="tick" text-anchor="middle">80 kg</text>
<line x1="1160.0" y1="1320.0" x2="1160.0" y2="1560.0" class="grid" />
<text x="1160.0" y="1316.0" class="tick" text-anchor="middle">85 kg</text>
<line x1="1290.0" y1="1320.0" x2="1290.0" y2="1560.0" class="grid" />
<text x="1290.0" y="1316.0" class="tick" text-anchor="middle">90 kg</text>
<line x1="1420.0" y1="1320.0" x2="1420.0" y2="1560.0" class="grid" />
<text x="1420.0" y="1316.0" class="tick" text-anchor="middle">95 kg</text>
<line x1="1550.0" y1="1320.0" x2="1550.0" y2="1560.0" class="grid" />
<text x="1550.0" y="1316.0" class="tick" text-anchor="middle">100 kg</text>
<line x1="1680.0" y1="1320.0" x2="1680.0" y2="1560.0" class="grid" />
<text x="1680.0" y="1316.0" class="tick" text-anchor="middle">105 kg</text>
<line x1="120.0" y1="1338.0" x2="1680.0" y2="1338.0" class="baseline" />
<defs><clipPath id="both-clip-fours-0"><rect x="580.5" y="1354.5" width="275.0" height="15" rx="7.5" ry="7.5" /></clipPath></defs>
<rect x="580.5" y="1354.5" width="275.0" height="15" rx="7.5" ry="7.5" fill="#0b5d46" />
<rect x="580.5" y="1362.0" width="275.0" height="7.5" fill="#1e40af" clip-path="url(#both-clip-fours-0)" />
<circle cx="588.0" cy="1362.0" r="5" class="marker" fill="#dc2626" />
<text x="718.0" y="1366.0" class="boat-label" text-anchor="middle" fill="white">Vixen</text>
<defs><clipPath id="both-clip-fours-1"><rect x="632.5" y="1378.5" width="275.0" height="15" rx="7.5" ry="7.5" /></clipPath></defs>
<rect x="632.5" y="1378.5" width="275.0" height="15" rx="7.5" ry="7.5" fill="#0b5d46" />
<rect x="632.5" y="1386.0" width="275.0" height="7.5" fill="#1e40af" clip-path="url(#both-clip-fours-1)" />
<text x="770.0" y="1390.0" class="boat-label" text-anchor="middle" fill="white">Shaker Baker</text>
<line x1="770.0" y1="1410.0" x2="1030.0" y2="1410.0" class="interval" stroke="#0b5d46" />
<text x="900.0" y="1414.0" class="boat-label" text-anchor="middle" fill="white">Farn</text>
<line x1="770.0" y1="1434.0" x2="1030.0" y2="1434.0" class="interval" stroke="#1e40af" />
<circle cx="770.0" cy="1434.0" r="5" class="marker" fill="#dc2626" />
<text x="900.0" y="1438.0" class="boat-label" text-anchor="middle" fill="white">Fortitude</text>
<line x1="900.0" y1="1458.0" x2="1160.0" y2="1458.0" class="interval" stroke="#1e40af" />
<text x="1030.0" y="1462.0" class="boat-label" text-anchor="middle" fill="white">SITA</text>
<line x1="900.0" y1="1482.0" x2="1160.0" y2="1482.0" class="interval" stroke="#0b5d46" />
<text x="1030.0" y="1486.0" class="boat-label" text-anchor="middle" fill="white">Water beetle</text>
<defs><clipPath id="both-clip-fours-6"><rect x="1022.5" y="1498.5" width="275.0" height="15" rx="7.5" ry="7.5" /></clipPath></defs>
<rect x="1022.5" y="1498.5" width="275.0" height="15" rx="7.5" ry="7.5" fill="#0b5d46" />
<rect x="1022.5" y="1506.0" width="275.0" height="7.5" fill="#1e40af" clip-path="url(#both-clip-fours-6)" />
<circle cx="1030.0" cy="1506.0" r="5" class="marker" fill="#dc2626" />
<text x="1160.0" y="1510.0" class="boat-label" text-anchor="middle" fill="white">Dalesman</text>
<defs><clipPath id="both-clip-fours-7"><rect x="1022.5" y="1522.5" width="275.0" height="15" rx="7.5" ry="7.5" /></clipPath></defs>
<rect x="1022.5" y="1522.5" width="275.0" height="15" rx="7.5" ry="7.5" fill="#0b5d46" />
<rect x="1022.5" y="1530.0" width="275.0" height="7.5" fill="#1e40af" clip-path="url(#both-clip-fours-7)" />
<text x="1160.0" y="1534.0" class="boat-label" text-anchor="middle" fill="white">Tricky</text>
<line x1="1160.0" y1="1554.0" x2="1420.0" y2="1554.0" class="interval" stroke="#1e40af" />
<circle cx="1160.0" cy="1554.0" r="5" class="marker" fill="#dc2626" />
<text x="1290.0" y="1558.0" class="boat-label" text-anchor="middle" fill="white">Hagaros</text>
<rect x="48" y="1610" width="1704" height="344" rx="6" ry="6" class="panel" />
<rect x="64" y="1624" width="1672" height="30" rx="4" ry="4" fill="#00543c" />
<text x="72.0" y="1646.0" class="panel-title" text-anchor="start">Coxed Fours</text>
<line x1="120.0" y1="1672.0" x2="120.0" y2="1936.0" class="grid" />
<text x="120.0" y="1668.0" class="tick" text-anchor="middle">45 kg</text>
<line x1="250.0" y1="1672.0" x2="250.0" y2="1936.0" class="grid" />
<text x="250.0" y="1668.0" class="tick" text-anchor="middle">50 kg</text>
<line x1="380.0" y1="1672.0" x2="380.0" y2="1936.0" class="grid" />
<text x="380.0" y="1668.0" class="tick" text-anchor="middle">55 kg</text>
<line x1="510.0" y1="1672.0" x2="510.0" y2="1936.0" class="grid" />
<text x="510.0" y="1668.0" class="tick" text-anchor="middle">60 kg</text>
<line x1="640.0" y1="1672.0" x2="640.0" y2="1936.0" class="grid" />
<text x="640.0" y="1668.0" class="tick" text-anchor="middle">65 kg</text>
<line x1="770.0" y1="1672.0" x2="770.0" y2="1936.0" class="grid" />
<text x="770.0" y="1668.0" class="tick" text-anchor="middle">70 kg</text>
<line x1="900.0" y1="1672.0" x2="900.0" y2="1936.0" class="grid" />
<text x="900.0" y="1668.0" class="tick" text-anchor="middle">75 kg</text>
<line x1="1030.0" y1="1672.0" x2="1030.0" y2="1936.0" class="grid" />
<text x="1030.0" y="1668.0" class="tick" text-anchor="middle">80 kg</text>
<line x1="1160.0" y1="1672.0" x2="1160.0" y2="1936.0" class="grid" />
<text x="1160.0" y="1668.0" class="tick" text-anchor="middle">85 kg</text>
<line x1="1290.0" y1="1672.0" x2="1290.0" y2="1936.0" class="grid" />
<text x="1290.0" y="1668.0" class="tick" text-anchor="middle">90 kg</text>
<line x1="1420.0" y1="1672.0" x2="1420.0" y2="1936.0" class="grid" />
<text x="1420.0" y="1668.0" class="tick" text-anchor="middle">95 kg</text>
<line x1="1550.0" y1="1672.0" x2="1550.0" y2="1936.0" class="grid" />
<text x="1550.0" y="1668.0" class="tick" text-anchor="middle">100 kg</text>
<line x1="1680.0" y1="1672.0" x2="1680.0" y2="1936.0" class="grid" />
<text x="1680.0" y="1668.0" class="tick" text-anchor="middle">105 kg</text>
<line x1="120.0" y1="1690.0" x2="1680.0" y2="1690.0" class="baseline" />
<defs><clipPath id="both-clip-coxed-fours-0"><rect x="242.5" y="1706.5" width="275.0" height="15" rx="7.5" ry="7.5" /></clipPath></defs>
<rect x="242.5" y="1706.5" width="275.0" height="15" rx="7.5" ry="7.5" fill="#0b5d46" />
<rect x="242.5" y="1714.0" width="275.0" height="7.5" fill="#1e40af" clip-path="url(#both-clip-coxed-fours-0)" />
<text x="380.0" y="1718.0" class="boat-label" text-anchor="middle" fill="white">Water Witch</text>
<line x1="510.0" y1="1738.0" x2="770.0" y2="1738.0" class="interval" stroke="#1e40af" />
<circle cx="510.0" cy="1738.0" r="5" class="marker" fill="#dc2626" />
<text x="640.0" y="1742.0" class="boat-label" text-anchor="middle" fill="white">High</text>
<defs><clipPath id="both-clip-coxed-fours-2"><rect x="502.5" y="1754.5" width="275.0" height="15" rx="7.5" ry="7.5" /></clipPath></defs>
<rect x="502.5" y="1754.5" width="275.0" height="15" rx="7.5" ry="7.5" fill="#0b5d46" />
<rect x="502.5" y="1762.0" width="275.0" height="7.5" fill="#1e40af" clip-path="url(#both-clip-coxed-fours-2)" />
<circle cx="510.0" cy="1762.0" r="5" class="marker" fill="#dc2626" />
<text x="640.0" y="1766.0" class="boat-label" text-anchor="middle" fill="white">Kath &amp; Rog</text>
<defs><clipPath id="both-clip-coxed-fours-3"><rect x="502.5" y="1778.5" width="275.0" height="15" rx="7.5" ry="7.5" /></clipPath></defs>
<rect x="502.5" y="1778.5" width="275.0" height="15" rx="7.5" ry="7.5" fill="#0b5d46" />
<rect x="502.5" y="1786.0" width="275.0" height="7.5" fill="#1e40af" clip-path="url(#both-clip-coxed-fours-3)" />
<text x="640.0" y="1790.0" class="boat-label" text-anchor="middle" fill="white">Neptune</text>
<defs><clipPath id="both-clip-coxed-fours-4"><rect x="632.5" y="1802.5" width="275.0" height="15" rx="7.5" ry="7.5" /></clipPath></defs>
<rect x="632.5" y="1802.5" width="275.0" height="15" rx="7.5" ry="7.5" fill="#0b5d46" />
<rect x="632.5" y="1810.0" width="275.0" height="7.5" fill="#1e40af" clip-path="url(#both-clip-coxed-fours-4)" />
<text x="770.0" y="1814.0" class="boat-label" text-anchor="middle" fill="white">Davina Lund</text>
<defs><clipPath id="both-clip-coxed-fours-5"><rect x="632.5" y="1826.5" width="275.0" height="15" rx="7.5" ry="7.5" /></clipPath></defs>
<rect x="632.5" y="1826.5" width="275.0" height="15" rx="7.5" ry="7.5" fill="#0b5d46" />
<rect x="632.5" y="1834.0" width="275.0" height="7.5" fill="#1e40af" clip-path="url(#both-clip-coxed-fours-5)" />
<text x="770.0" y="1838.0" class="boat-label" text-anchor="middle" fill="white">Inspired by Murphy</text>
<defs><clipPath id="both-clip-coxed-fours-6"><rect x="632.5" y="1850.5" width="275.0" height="15" rx="7.5" ry="7.5" /></clipPath></defs>
<rect x="632.5" y="1850.5" width="275.0" height="15" rx="7.5" ry="7.5" fill="#0b5d46" />
<rect x="632.5" y="1858.0" width="275.0" height="7.5" fill="#1e40af" clip-path="url(#both-clip-coxed-fours-6)" />
<circle cx="640.0" cy="1858.0" r="5" class="marker" fill="#dc2626" />
<text x="770.0" y="1862.0" class="boat-label" text-anchor="middle" fill="white">Paula</text>
<line x1="900.0" y1="1882.0" x2="1160.0" y2="1882.0" class="interval" stroke="#1e40af" />
<text x="1030.0" y="1886.0" class="boat-label" text-anchor="middle" fill="white">The Royal and Ancient</text>
<line x1="1030.0" y1="1906.0" x2="1290.0" y2="1906.0" class="interval" stroke="#1e40af" />
<text x="1160.0" y="1910.0" class="boat-label" text-anchor="middle" fill="white">City of Bristol</text>
<line x1="1160.0" y1="1930.0" x2="1420.0" y2="1930.0" class="interval" stroke="#1e40af" />
<circle cx="1160.0" cy="1930.0" r="5" class="marker" fill="#dc2626" />
<text x="1290.0" y="1934.0" class="boat-label" text-anchor="middle" fill="white">Out of Nowhere</text>
<rect x="48" y="1986" width="1704" height="320" rx="6" ry="6" class="panel" />
<rect x="64" y="2000" width="1672" height="30" rx="4" ry="4" fill="#00543c" />
<text x="72.0" y="2022.0" class="panel-title" text-anchor="start">Eights</text>
<line x1="120.0" y1="2048.0" x2="120.0" y2="2288.0" class="grid" />
<text x="120.0" y="2044.0" class="tick" text-anchor="middle">45 kg</text>
<line x1="250.0" y1="2048.0" x2="250.0" y2="2288.0" class="grid" />
<text x="250.0" y="2044.0" class="tick" text-anchor="middle">50 kg</text>
<line x1="380.0" y1="2048.0" x2="380.0" y2="2288.0" class="grid" />
<text x="380.0" y="2044.0" class="tick" text-anchor="middle">55 kg</text>
<line x1="510.0" y1="2048.0" x2="510.0" y2="2288.0" class="grid" />
<text x="510.0" y="2044.0" class="tick" text-anchor="middle">60 kg</text>
<line x1="640.0" y1="2048.0" x2="640.0" y2="2288.0" class="grid" />
<text x="640.0" y="2044.0" class="tick" text-anchor="middle">65 kg</text>
<line x1="770.0" y1="2048.0" x2="770.0" y2="2288.0" class="grid" />
<text x="770.0" y="2044.0" class="tick" text-anchor="middle">70 kg</text>
<line x1="900.0" y1="2048.0" x2="900.0" y2="2288.0" class="grid" />
<text x="900.0" y="2044.0" class="tick" text-anchor="middle">75 kg</text>
<line x1="1030.0" y1="2048.0" x2="1030.0" y2="2288.0" class="grid" />
<text x="1030.0" y="2044.0" class="tick" text-anchor="middle">80 kg</text>
<line x1="1160.0" y1="2048.0" x2="1160.0" y2="2288.0" class="grid" />
<text x="1160.0" y="2044.0" class="tick" text-anchor="middle">85 kg</text>
<line x1="1290.0" y1="2048.0" x2="1290.0" y2="2288.0" class="grid" />
<text x="1290.0" y="2044.0" class="tick" text-anchor="middle">90 kg</text>
<line x1="1420.0" y1="2048.0" x2="1420.0" y2="2288.0" class="grid" />
<text x="1420.0" y="2044.0" class="tick" text-anchor="middle">95 kg</text>
<line x1="1550.0" y1="2048.0" x2="1550.0" y2="2288.0" class="grid" />
<text x="1550.0" y="2044.0" class="tick" text-anchor="middle">100 kg</text>
<line x1="1680.0" y1="2048.0" x2="1680.0" y2="2288.0" class="grid" />
<text x="1680.0" y="2044.0" class="tick" text-anchor="middle">105 kg</text>
<line x1="120.0" y1="2066.0" x2="1680.0" y2="2066.0" class="baseline" />
<line x1="640.0" y1="2090.0" x2="900.0" y2="2090.0" class="interval" stroke="#1e40af" />
<text x="770.0" y="2094.0" class="boat-label" text-anchor="middle" fill="white">Cory</text>
<line x1="640.0" y1="2114.0" x2="900.0" y2="2114.0" class="interval" stroke="#1e40af" />
<circle cx="640.0" cy="2114.0" r="5" class="marker" fill="#dc2626" />
<text x="770.0" y="2118.0" class="boat-label" text-anchor="middle" fill="white">Donne Forti</text>
<line x1="640.0" y1="2138.0" x2="900.0" y2="2138.0" class="interval" stroke="#1e40af" />
<circle cx="640.0" cy="2138.0" r="5" class="marker" fill="#dc2626" />
<text x="770.0" y="2142.0" class="boat-label" text-anchor="middle" fill="white">Stämpfli</text>
<line x1="640.0" y1="2162.0" x2="900.0" y2="2162.0" class="interval" stroke="#1e40af" />
<text x="770.0" y="2166.0" class="boat-label" text-anchor="middle" fill="white">Viridor</text>
<line x1="770.0" y1="2186.0" x2="1030.0" y2="2186.0" class="interval" stroke="#1e40af" />
<text x="900.0" y="2190.0" class="boat-label" text-anchor="middle" fill="white">Beetroot</text>
<line x1="900.0" y1="2210.0" x2="1160.0" y2="2210.0" class="interval" stroke="#1e40af" />
<text x="1030.0" y="2214.0" class="boat-label" text-anchor="middle" fill="white">Head Turner</text>
<line x1="1030.0" y1="2234.0" x2="1290.0" y2="2234.0" class="interval" stroke="#1e40af" />
<text x="1160.0" y="2238.0" class="boat-label" text-anchor="middle" fill="white">Massive Attack II</text>
<line x1="1030.0" y1="2258.0" x2="1290.0" y2="2258.0" class="interval" stroke="#1e40af" />
<circle cx="1030.0" cy="2258.0" r="5" class="marker" fill="#dc2626" />
<text x="1160.0" y="2262.0" class="boat-label" text-anchor="middle" fill="white">Paknet</text>
<line x1="1030.0" y1="2282.0" x2="1290.0" y2="2282.0" class="interval" stroke="#1e40af" />
<text x="1160.0" y="2286.0" class="boat-label" text-anchor="middle" fill="white">Stagg</text>
</svg>